<svg xmlns="http://www.w3.org/2000/svg" viewBox="0 0 512 512">
  <defs>
    <linearGradient id="bg" x1="0%" y1="0%" x2="100%" y2="100%">
      <stop offset="0%" stop-color="#818cf8"/>
      <stop offset="100%" stop-color="#6366f1"/>
    </linearGradient>
    <linearGradient id="sun" x1="0%" y1="0%" x2="100%" y2="100%">
      <stop offset="0%" stop-color="#fde68a"/>
      <stop offset="100%" stop-color="#f59e0b"/>
    </linearGradient>
  </defs>
  <!-- 배경 -->
  <rect width="512" height="512" rx="112" fill="url(#bg)"/>
  <!-- 태양 광선 -->
  <g opacity="0.65" stroke="#fde68a" stroke-width="14" stroke-linecap="round">
    <line x1="178" y1="90" x2="178" y2="60"/>
    <line x1="130" y1="108" x2="110" y2="88"/>
    <line x1="108" y1="158" x2="78" y2="158"/>
    <line x1="130" y1="210" x2="110" y2="230"/>
    <line x1="226" y1="108" x2="246" y2="88"/>
  </g>
  <!-- 태양 -->
  <circle cx="178" cy="165" r="68" fill="url(#sun)"/>
  <!-- 구름 -->
  <circle cx="228" cy="304" r="76" fill="white"/>
  <circle cx="304" cy="282" r="68" fill="white"/>
  <circle cx="368" cy="316" r="56" fill="white"/>
  <circle cx="164" cy="330" r="52" fill="white"/>
  <rect x="164" y="324" width="248" height="72" fill="white"/>
  <!-- 빗방울 -->
  <rect x="204" y="412" width="12" height="28" rx="6" fill="#93c5fd" transform="rotate(-8 210 426)"/>
  <rect x="252" y="416" width="12" height="28" rx="6" fill="#93c5fd"/>
  <rect x="300" y="410" width="12" height="28" rx="6" fill="#93c5fd" transform="rotate(8 306 424)"/>
</svg>
